#!OML:ASF F:\VICON\USERDATA\INSTALL\Justin_Nancy\Justin_Nancy.ASF
:FULLY-SPECIFIED
:DEGREES
95
root -3.87566 15.535 5.63089 -16.8896 48.1802 -19.42
lowerback 16.1396 1.6629 2.78448
upperback 2.96514 3.54476 8.98962
thorax -6.31577 1.88222 7.36038
lowerneck -4.81659 -12.7933 -7.63342
upperneck 15.159 -17.5336 6.66358
head 6.67642 -8.42196 1.8919
rclavicle -3.57812e-014 -6.83819e-014
rhumerus -40.8417 23.0734 -91.6863
rradius 97.2132
rwrist -5.33387
rhand -8.74399 29.618
rfingers 7.12502
rthumb 17.1929 0.358652
lclavicle -3.57812e-014 -6.83819e-014
lhumerus -63.2848 -6.16642 80.8485
lradius 119.001
lwrist 47.5466
lhand -27.2375 11.4717
lfingers 7.12502
lthumb -0.649478 41.4505
rfemur -0.259333 15.5601 11.5542
rtibia 61.4921
rfoot -2.36667 0.449995
rtoes -25.9714
lfemur -23.2268 22.27 -36.8001
ltibia 50.7187
lfoot -14.6092 -8.82322
ltoes 33.9205
96
root -3.65797 15.5367 5.87531 -16.5135 48.8828 -19.1831
lowerback 15.9019 1.6117 1.66567
upperback 2.98329 3.27885 9.11446
thorax -6.20385 1.77858 8.21869
lowerneck -5.51176 -12.7124 -8.1386
upperneck 15.3803 -17.3243 6.51259
head 6.88244 -8.33717 1.88285
rclavicle 3.97569e-016 7.95139e-016
rhumerus -41.8975 22.1568 -90.6643
rradius 97.0818
rwrist -5.85898
rhand -9.01007 28.9962
rfingers 7.12502
rthumb 16.9367 -0.285353
lclavicle 3.97569e-016 7.95139e-016
lhumerus -59.395 -5.34906 79.1664
lradius 120.245
lwrist 47.7068
lhand -27.9269 11.752
lfingers 7.12502
lthumb -1.31533 41.7277
rfemur -2.6925 15.5715 11.0016
rtibia 64.2988
rfoot -3.2695 -2.29926
rtoes -25.7449
lfemur -21.6703 22.2967 -36.6865
ltibia 50.0274
lfoot -15.6031 -8.92048
ltoes 32.8465
97
root -3.43335 15.5424 6.10272 -15.9778 49.5757 -18.8399
lowerback 15.7448 1.58137 0.622284
upperback 2.86204 3.06989 9.20659
thorax -6.27801 1.70387 8.99171
lowerneck -5.94534 -12.4857 -8.52769
upperneck 15.5307 -16.9209 6.32028
head 6.99175 -8.16561 1.88964
rclavicle -7.21588e-014 5.96354e-014
rhumerus -43.2261 20.8208 -89.566
rradius 96.878
rwrist -6.70985
rhand -9.18115 28.764
rfingers 7.12502
rthumb 16.7721 -0.53152
lclavicle -7.21588e-014 5.96354e-014
lhumerus -55.3892 -4.30605 77.826
lradius 121.189
lwrist 47.8858
lhand -28.0703 11.6718
lfingers 7.12502
lthumb -1.45384 41.6466
rfemur -5.38432 15.2986 10.1745
rtibia 66.923
rfoot -4.08365 -4.73741
rtoes -25.7539
lfemur -20.135 22.3215 -36.6328
ltibia 49.2487
lfoot -16.3395 -9.31455
ltoes 32.7744
98
root -3.21159 15.5198 6.28195 -12.1002 50.9442 -15.0045
lowerback 15.3222 1.54196 -1.49805
upperback 2.42746 2.54867 8.16258
thorax -6.4662 1.4712 9.1895
lowerneck -6.47667 -12.146 -8.3004
upperneck 15.6985 -16.4408 6.20462
head 7.07 -7.91625 1.83959
rclavicle -3.89618e-014 4.6118e-014
rhumerus -44.5333 19.0533 -88.874
rradius 96.5637
rwrist -8.42431
rhand -8.92306 28.6915
rfingers 7.12502
rthumb 17.0205 -0.582811
lclavicle -3.89618e-014 4.6118e-014
lhumerus -51.2508 -3.47527 76.0866
lradius 122.098
lwrist 48.2282
lhand -28.5083 11.6234
lfingers 7.12502
lthumb -1.87681 41.5949
rfemur -9.14146 14.0636 5.80282
rtibia 69.5001
rfoot -5.23047 -5.71043
rtoes -25.3366
lfemur -19.0852 22.0115 -39.5029
ltibia 48.1417
lfoot -17.0927 -9.49894
ltoes 32.2753
99
root -2.98457 15.5266 6.47899 -11.0398 51.4673 -14.1976
lowerback 15.3226 1.4703 -2.02007
upperback 2.22524 2.33687 7.80871
thorax -6.65108 1.37751 9.14981
lowerneck -6.91671 -11.75 -7.88115
upperneck 15.6426 -15.8698 5.90358
head 7.02344 -7.63478 1.72848
rclavicle -7.91163e-014 0
rhumerus -45.5896 17.8464 -88.0958
rradius 96.0897
rwrist -10.5156
rhand -9.02545 28.368
rfingers 7.12502
rthumb 16.9219 -0.914807
lclavicle -7.91163e-014 0
lhumerus -47.0999 -2.57972 74.6806
lradius 122.759
lwrist 48.1882
lhand -29.4877 11.3686
lfingers 7.12502
lthumb -2.82267 41.3296
rfemur -12.4439 13.6676 4.47086
rtibia 71.5936
rfoot -5.85778 -7.09026
rtoes -23.7541
lfemur -17.6422 21.5042 -39.7284
ltibia 47.1368
lfoot -17.5867 -9.74009
ltoes 31.9705
100
root -2.75531 15.5359 6.66387 -10.1969 51.8718 -13.5091
lowerback 15.4686 1.39399 -2.59848
upperback 2.07418 2.13105 7.67291
thorax -6.87314 1.2973 9.39276
lowerneck -7.45096 -11.2624 -7.56646
upperneck 15.7832 -15.111 5.28459
head 7.03138 -7.2883 1.54366
rclavicle 8.3092e-014 2.38542e-015
rhumerus -46.4664 17.3412 -87.0224
rradius 95.4923
rwrist -11.7033
rhand -10.3329 27.8987
rfingers 7.12502
rthumb 15.6631 -1.48732
lclavicle 8.3092e-014 2.38542e-015
lhumerus -43.2727 -0.977525 74.1405
lradius 123.141
lwrist 47.2871
lhand -28.443 11.5532
lfingers 7.12502
lthumb -1.81378 41.5252
rfemur -15.7501 13.5541 3.35541
rtibia 73.3222
rfoot -6.62751 -8.05726
rtoes -19.719
lfemur -16.0455 20.7648 -39.8585
ltibia 45.9933
lfoot -17.8277 -9.71166
ltoes 31.2192
101
root -2.51436 15.5451 6.83658 -9.73054 52.2321 -13.1975
lowerback 15.6293 1.22397 -2.82322
upperback 1.99764 1.86641 7.63109
thorax -7.00114 1.17812 9.54389
lowerneck -8.29407 -10.727 -7.5973
upperneck 16.2872 -14.2839 4.93176
head 7.26095 -6.89646 1.47109
rclavicle 5.34731e-014 -3.57812e-014
rhumerus -47.0207 16.8748 -85.7284
rradius 94.7775
rwrist -12.4055
rhand -11.6981 28.1127
rfingers 7.12502
rthumb 14.3479 -1.37145
lclavicle 5.34731e-014 -3.57812e-014
lhumerus -39.97 0.781309 73.9704
lradius 123.587
lwrist 45.7623
lhand -26.2265 12.1165
lfingers 7.12502
lthumb 0.327017 42.0959
rfemur -18.8427 13.6389 2.62279
rtibia 74.5134
rfoot -7.55538 -8.75789
rtoes -16.5675
lfemur -14.3875 19.7208 -39.8452
ltibia 44.914
lfoot -18.136 -9.21787
ltoes 30.4312
102
root -2.26956 15.5452 7.00108 -9.03708 52.7453 -12.7052
lowerback 15.6645 0.955439 -3.03801
upperback 1.8874 1.46242 7.51255
thorax -7.06489 0.986427 9.63216
lowerneck -9.17661 -10.183 -7.62098
upperneck 16.9004 -13.4522 4.64055
head 7.54159 -6.4984 1.41738
rclavicle 3.20043e-014 2.38542e-015
rhumerus -47.618 16.7822 -84.8743
rradius 93.7025
rwrist -9.98295
rhand -15.8438 28.1333
rfingers 7.12502
rthumb 10.3508 -1.59199
lclavicle 3.20043e-014 2.38542e-015
lhumerus -37.4916 2.06002 73.8972
lradius 124.377
lwrist 44.4559
lhand -26.2232 12.1669
lfingers 7.12502
lthumb 0.33019 42.1464
rfemur -21.9343 13.1277 1.67425
rtibia 75.3299
rfoot -8.4904 -9.08412
rtoes -16.401
lfemur -12.7708 18.4772 -40.0824
ltibia 43.7025
lfoot -18.2582 -8.78646
ltoes 30.3752
103
root -2.01707 15.5348 7.15637 -7.8516 53.1901 -11.7282
lowerback 15.5345 0.701823 -3.46757
upperback 1.7812 1.0269 7.28802
thorax -7.02603 0.777913 9.73067
lowerneck -9.91608 -9.576 -7.1983
upperneck 17.3091 -12.5809 4.22965
head 7.69286 -6.07413 1.28069
rclavicle -9.34288e-015 2.94201e-014
rhumerus -47.8725 16.5362 -83.8878
rradius 92.9732
rwrist -8.82022
rhand -16.0272 28.2289
rfingers 7.12502
rthumb 10.1739 -1.50509
lclavicle -9.34288e-015 2.94201e-014
lhumerus -35.6247 2.89721 74.1157
lradius 125.312
lwrist 43.5392
lhand -28.0089 11.4814
lfingers 7.12502
lthumb -1.39449 41.4566
rfemur -25.1663 12.1497 0.312791
rtibia 75.7725
rfoot -9.4983 -8.34714
rtoes -16.8644
lfemur -11.2111 18.8642 -40.4258
ltibia 42.3233
lfoot -18.5042 -9.61497
ltoes 29.0671
